<svg xmlns="http://www.w3.org/2000/svg" version="1.1" xmlns:xlink="http://www.w3.org/1999/xlink" xmlns:svgjs="http://svgjs.dev/svgjs" width="60" height="60"><svg width="60" height="60" viewBox="0 0 60 60" fill="none" xmlns="http://www.w3.org/2000/svg">
<rect x="1" y="16" width="58" height="43" rx="4" class="favicon-stroke" stroke-width="3"></rect>
<path d="M30 16.4062V14.5312L32.3438 13.125L28.5938 11.25L31.875 9.84375L30 7.96875V4.6875" class="favicon-stroke" ></path>
<circle cx="15" cy="28.125" r="6.5" class="favicon-stroke" stroke-width="3"></circle>
<circle cx="45" cy="28.125" r="6.5" class="favicon-stroke" stroke-width="3"></circle>
<rect x="12.25" y="43.1875" width="35.5" height="7.375" rx="2" class="favicon-stroke" stroke-width="3"></rect>
<path d="M17.8125 43.5938V51.0938M30.0426 43.5938V51.0938M42.1875 43.5938V51.0938M23.9062 51.5625V43.125M36.0938 43.5938V51.0938" class="favicon-stroke" stroke-width="3"></path>
<path d="M32.3125 2.8125C32.3125 4.08966 31.2772 5.125 30 5.125C28.7228 5.125 27.6875 4.08966 27.6875 2.8125C27.6875 1.53534 28.7228 0.5 30 0.5C31.2772 0.5 32.3125 1.53534 32.3125 2.8125Z" class="favicon-stroke favicon-fill"></path>
</svg>
<style>
@media { 
.favicon-stroke { stroke: #4c4f69; }
.favicon-fill { fill: #4c4f69; }
}
@media (prefers-color-scheme: dark) { 
.favicon-stroke { stroke: #CDD6F4; }
.favicon-fill { fill: #CDD6F4; }
 }
</style></svg>
